<?xml version="1.0" encoding="utf-8"?>
<!-- Generator: Adobe Illustrator 27.5.0, SVG Export Plug-In . SVG Version: 6.00 Build 0)  -->
<svg version="1.1" id="Calque_1" xmlns="http://www.w3.org/2000/svg" xmlns:xlink="http://www.w3.org/1999/xlink" x="0px" y="0px"
	 viewBox="0 0 2610.63 796.83" style="enable-background:new 0 0 2610.63 796.83;" xml:space="preserve">
<style type="text/css">
	.st0{fill:#FFFFFF;}
	.st1{fill:#F6BF03;}
	.st2{fill:#020203;}
</style>
<g>
	<g>
		<path class="st0" d="M1100.78,311.19c-0.74-49.29-36.26-68.74-73.8-67.95h-48.65c-5.84,0-11.28,1.7-15.86,4.64
			c-4.4,2.83-7.99,6.79-10.34,11.48c-1.97,3.92-3.08,8.34-3.08,13.01c0,16.08,13.1,29.13,29.28,29.13c0.85,0,1.69-0.03,2.52-0.11
			c9.42-0.8,17.57-6.04,22.32-13.61c2.21-3.52,3.68-7.53,4.21-11.83c0.14-1.17,0.22-2.36,0.22-3.57c0-5.43-1.5-10.52-4.1-14.87
			c-0.01-0.02,0-0.04,0.02-0.04c0.1-0.01,31.07-4.2,30.15,38.12c-2.02,93.34-52.6,99.32-52.6,99.32S1101.99,391.91,1100.78,311.19z"
			/>
		<path class="st0" d="M1001.52,316.96c0-0.02-0.02-0.04-0.04-0.02c-8.53,5.66-18.78,8.95-29.79,8.95
			c-29.71,0-53.8-23.96-53.8-53.52c0-1.22,0.04-2.43,0.13-3.64c0.63-9.31,3.65-17.98,8.46-25.38c0.02-0.03,0.05-0.07,0.07-0.11
			c8.65-13.24,25.31-23.36,39.64-24.12c1.81-0.1,9.19-0.18,10.99,0c0,0,0,0,0,0h48.29c0,0,68.93,1.51,75.2-75.52
			c0-0.02-0.01-0.03-0.03-0.03H970.97c-50.1,0-96.18,28.33-117.55,73.41c-0.33,0.71-0.67,1.42-0.99,2.14
			c-3.46,7.68-6.5,15.68-8.13,24.12C816.38,387.28,991.58,429.83,1001.52,316.96z"/>
	</g>
	<path class="st0" d="M1351.1,178.82c-12.09-11.29-26.34-20.01-42.76-26.17c-16.42-6.16-34.44-9.24-54.04-9.24
		c-19.39,0-37.35,3.08-53.88,9.24c-16.53,6.16-30.84,14.88-42.93,26.17c-12.09,11.29-21.5,24.52-28.22,39.68
		c-6.73,15.17-10.09,31.87-10.09,50.11c0,18.02,3.36,34.67,10.09,49.94c6.72,15.28,16.13,28.56,28.22,39.85
		c12.09,11.29,26.4,20.01,42.93,26.17c16.53,6.16,34.6,9.24,54.22,9.24c19.38,0,37.29-3.08,53.7-9.24
		c16.42-6.16,30.67-14.88,42.76-26.17c12.09-11.29,21.49-24.57,28.22-39.85c6.72-15.28,10.09-31.93,10.09-49.94
		c0-18.24-3.37-34.95-10.09-50.11C1372.59,203.34,1363.19,190.11,1351.1,178.82z M1303.9,293.76c-2.74,7.41-6.56,13.68-11.46,18.81
		c-4.91,5.13-10.61,9.06-17.1,11.8c-6.5,2.74-13.52,4.11-21.04,4.11c-7.53,0-14.54-1.37-21.04-4.11c-6.5-2.74-12.2-6.67-17.1-11.8
		c-4.91-5.13-8.73-11.4-11.46-18.81c-2.74-7.41-4.11-15.79-4.11-25.14c0-9.35,1.37-17.73,4.11-25.14
		c2.73-7.41,6.55-13.68,11.46-18.81c4.9-5.13,10.6-9.06,17.1-11.8c6.5-2.74,13.51-4.11,21.04-4.11c7.52,0,14.54,1.37,21.04,4.11
		s12.19,6.67,17.1,11.8c4.9,5.13,8.72,11.41,11.46,18.81c2.73,7.41,4.1,15.79,4.1,25.14C1308,277.97,1306.63,286.35,1303.9,293.76z"
		/>
	<path class="st0" d="M1563.87,275.59c0,18.66-3.25,31.89-9.75,39.7c-6.5,7.82-15.45,11.72-26.85,11.72
		c-11.18,0-20.07-3.9-26.69-11.72c-6.61-7.81-9.92-21.04-9.92-39.7v-52.86c0-43.83-35.53-79.36-79.36-79.36h-1.37v134.67
		c0,36.61,10.26,65.06,30.79,85.35c20.52,20.29,49.14,30.43,85.86,30.43c36.72,0,65.34-10.14,85.86-30.43
		c20.53-20.29,30.79-48.73,30.79-85.35V143.38l0,0c-43.83,0-79.36,35.53-79.36,79.36V275.59z"/>
	<path class="st0" d="M1884.39,286.92c8.9-13.34,13.34-29.25,13.34-47.72c0-18.47-4.45-40.01-13.34-53.58
		c-8.9-13.57-21.5-24-37.8-31.3c-16.3-7.3-35.63-10.95-57.98-10.95h-48.24c-37.02,0-67.04,30.01-67.04,67.04v184.77h13.69
		c37.02,0,67.04-30.01,67.04-67.04v0h21.99l21.04,34.73c12.15,20.05,33.89,32.3,57.34,32.3h48.43l-50.25-80.48
		C1866.03,307.83,1876.63,298.57,1884.39,286.92z M1808.28,218.68c5.35,5.02,8.04,11.86,8.04,20.52c0,8.67-2.68,15.51-8.04,20.52
		c-5.36,5.02-13.63,7.53-24.8,7.53h-29.42v-56.1h29.42C1794.65,211.15,1802.92,213.66,1808.28,218.68z"/>
	<path class="st0" d="M2143.69,178.82c-12.09-11.29-26.34-20.01-42.76-26.17c-16.42-6.16-34.44-9.24-54.04-9.24
		c-19.39,0-37.35,3.08-53.88,9.24s-30.84,14.88-42.93,26.17c-12.09,11.29-21.49,24.52-28.22,39.68
		c-6.73,15.17-10.09,31.87-10.09,50.11c0,18.02,3.36,34.67,10.09,49.94c6.72,15.28,16.13,28.56,28.22,39.85
		c12.09,11.29,26.4,20.01,42.93,26.17s34.6,9.24,54.22,9.24c19.38,0,37.29-3.08,53.7-9.24c16.42-6.16,30.67-14.88,42.76-26.17
		c12.09-11.29,21.49-24.57,28.22-39.85c6.72-15.28,10.09-31.93,10.09-49.94c0-18.24-3.37-34.95-10.09-50.11
		C2165.18,203.34,2155.77,190.11,2143.69,178.82z M2096.48,293.76c-2.74,7.41-6.56,13.68-11.46,18.81
		c-4.91,5.13-10.6,9.06-17.1,11.8c-6.5,2.74-13.52,4.11-21.04,4.11c-7.53,0-14.54-1.37-21.04-4.11c-6.5-2.74-12.2-6.67-17.1-11.8
		c-4.91-5.13-8.73-11.4-11.46-18.81c-2.74-7.41-4.11-15.79-4.11-25.14c0-9.35,1.37-17.73,4.11-25.14
		c2.73-7.41,6.55-13.68,11.46-18.81c4.9-5.13,10.6-9.06,17.1-11.8c6.5-2.74,13.51-4.11,21.04-4.11c7.52,0,14.54,1.37,21.04,4.11
		s12.19,6.67,17.1,11.8c4.9,5.13,8.72,11.41,11.46,18.81c2.73,7.41,4.1,15.79,4.1,25.14
		C2100.58,277.97,2099.22,286.35,2096.48,293.76z"/>
	<path class="st0" d="M2435.81,143.42c-43.83,0-79.36,35.53-79.36,79.36v52.83c0,18.66-3.25,31.88-9.75,39.69
		c-6.5,7.81-15.45,11.72-26.85,11.72c-11.18,0-20.07-3.9-26.69-11.72c-6.61-7.81-9.92-21.04-9.92-39.69v-52.83
		c0-43.83-35.53-79.36-79.36-79.36h-1.37v134.64c0,36.61,10.26,65.05,30.79,85.33c20.52,20.28,49.14,30.43,85.86,30.43
		c36.72,0,65.34-10.14,85.86-30.43c20.53-20.28,30.79-48.73,30.79-85.33V143.42L2435.81,143.42z"/>
	<path class="st0" d="M984.74,475.02c-15.49-7.69-33.41-11.53-53.77-11.53h-90.05v96.34c0,51.71,40.32,93.63,90.05,93.63h0
		c20.36,0,38.28-3.84,53.77-11.53c15.49-7.69,27.58-18.63,36.28-32.84c8.7-14.2,13.05-31.16,13.05-50.88
		c0-19.54-4.35-36.37-13.05-50.48C1012.32,493.61,1000.23,482.71,984.74,475.02z M966.47,583.04c-3.65,6.78-8.74,11.9-15.27,15.33
		c-6.52,3.44-14.14,5.16-22.84,5.16h-25.84v-90.1h25.84c8.7,0,16.32,1.72,22.84,5.16c6.53,3.44,11.62,8.51,15.27,15.2
		c3.65,6.7,5.48,14.84,5.48,24.42C971.95,567.97,970.13,576.25,966.47,583.04z"/>
	<path class="st0" d="M1111.86,580.19h55.08c12.25,0,22.19-10.33,22.19-23.07v0c0-12.74-9.93-23.07-22.19-23.07h-55.08V511.8h65.78
		c12.25,0,22.19-10.33,22.19-23.07v-25.24h-126.33c-12.25,0-22.19,10.33-22.19,23.07v143.83c0,12.74,9.93,23.07,22.19,23.07h129.73
		v-25.24c0-12.74-9.93-23.07-22.19-23.07h-69.17V580.19z"/>
	<path class="st0" d="M1355,552.77c-6-3.98-12.57-7.18-19.71-9.6c-7.14-2.42-14.32-4.32-21.54-5.71
		c-7.22-1.38-13.83-2.68-19.84-3.89c-6-1.21-10.83-2.73-14.49-4.54c-3.65-1.82-5.48-4.28-5.48-7.4c0-2.08,0.74-3.98,2.22-5.71
		c1.48-1.73,3.96-3.11,7.44-4.15c3.48-1.04,8.18-1.56,14.1-1.56c8,0,16.22,1.13,24.67,3.37c0.08,0.02,0.17,0.05,0.25,0.07
		c15.43,4.15,31.6-3.41,37.73-18.09l6.78-16.24c-9.57-5.36-20.36-9.34-32.37-11.94c-12.01-2.6-24.19-3.89-36.54-3.89
		c-18.79,0-34.5,2.77-47.11,8.31c-12.62,5.54-22.1,12.93-28.45,22.19c-6.35,9.26-9.53,19.51-9.53,30.75
		c0,9.69,1.83,17.78,5.48,24.27c3.65,6.49,8.48,11.72,14.49,15.7c6.01,3.98,12.62,7.18,19.84,9.6c7.22,2.42,14.4,4.37,21.53,5.84
		c7.13,1.47,13.7,2.86,19.71,4.15c6.01,1.3,10.83,2.9,14.49,4.8c3.65,1.91,5.48,4.5,5.48,7.79c0,2.08-0.78,3.85-2.35,5.32
		c-1.57,1.47-4.05,2.6-7.44,3.37c-3.39,0.78-8.05,1.17-13.96,1.17c-10.09,0-20.49-1.51-31.19-4.54c-1.29-0.37-2.57-0.75-3.83-1.14
		c-15.14-4.73-31.42,2.9-37.83,17.33l-7.28,16.38c9.22,5.54,20.97,10.04,35.24,13.5c14.27,3.46,29.06,5.19,44.37,5.19
		c18.97,0,34.72-2.81,47.24-8.43c12.53-5.62,21.97-13.06,28.32-22.32c6.35-9.25,9.53-19.42,9.53-30.49c0-9.51-1.83-17.47-5.48-23.88
		C1365.83,561.94,1361,556.75,1355,552.77z"/>
	<path class="st0" d="M1388.01,653.46L1388.01,653.46c34.02,0,61.6-28.67,61.6-64.05V463.49l0,0c-34.02,0-61.6,28.67-61.6,64.05
		V653.46z"/>
	<path class="st0" d="M1540.97,525.26c3.83-3.98,8.48-7.01,13.96-9.08c5.48-2.08,11.61-3.11,18.4-3.11c8.18,0,15.62,1.69,22.32,5.06
		c0.07,0.03,0.13,0.07,0.2,0.1c13.32,6.79,29.37,5.27,40.6-4.57l17.27-15.13c-9.23-11.24-20.93-19.89-35.11-25.95
		c-14.18-6.05-30.32-9.08-48.42-9.08c-15.14,0-29.02,2.29-41.63,6.88c-12.62,4.59-23.54,11.12-32.76,19.59
		c-9.23,8.48-16.36,18.52-21.4,30.11c-5.05,11.59-7.57,24.39-7.57,38.41s2.52,26.82,7.57,38.41c5.05,11.59,12.14,21.63,21.27,30.1
		c9.14,8.48,19.92,15.01,32.36,19.59c12.44,4.58,26.06,6.88,40.85,6.88c13.4,0,27.23-1.99,41.5-5.97
		c14.27-3.98,26.97-9.69,38.11-17.13v-76.82h-17.81c-19.72,0-35.7,15.89-35.7,35.5v10.55c-0.7,0.28-1.4,0.55-2.09,0.8
		c-6.61,2.33-13.4,3.5-20.36,3.5c-6.62,0-12.57-1.08-17.88-3.24c-5.31-2.16-9.88-5.23-13.7-9.21c-3.83-3.98-6.79-8.78-8.88-14.4
		c-2.09-5.62-3.13-11.81-3.13-18.56c0-7.09,1.04-13.41,3.13-18.95C1534.18,533.99,1537.14,529.24,1540.97,525.26z"/>
	<path class="st0" d="M1789.72,525.91v23.96l-51.43-63.99c-11.41-14.19-28.28-22.39-46.07-22.39h-22.57v189.97h0
		c33.16,0,60.04-27.95,60.04-62.42v-23.96l51.43,63.99c11.41,14.19,28.28,22.39,46.07,22.39h22.57V463.49h0
		C1816.6,463.49,1789.72,491.44,1789.72,525.91z"/>
	<path class="st1" d="M620.24,93.36H339.51c-90.96,0-164.7,73.74-164.7,164.7v280.73c0,90.96,73.74,164.7,164.7,164.7h280.73
		c90.96,0,164.7-73.74,164.7-164.7V258.05C784.94,167.09,711.2,93.36,620.24,93.36z"/>
	<g>
		<path class="st2" d="M693.46,467.83c-1.22-81.56-59.69-113.74-121.49-112.43h-80.08c-9.62,0-18.57,2.82-26.1,7.67
			c-7.24,4.68-13.15,11.24-17.02,18.99c-3.24,6.48-5.07,13.8-5.07,21.53c0,26.61,21.57,48.19,48.19,48.19c1.4,0,2.78-0.06,4.15-0.18
			c15.51-1.32,28.93-10,36.75-22.53c3.63-5.82,6.06-12.46,6.93-19.58c0.24-1.94,0.36-3.91,0.36-5.91c0-8.99-2.46-17.4-6.75-24.6
			c-0.02-0.03,0-0.07,0.04-0.07c0.17-0.02,51.14-6.96,49.63,63.08c-3.32,154.45-86.6,164.35-86.6,164.35
			S695.45,601.39,693.46,467.83z"/>
		<path class="st2" d="M530.05,477.38c0-0.04-0.04-0.06-0.07-0.04c-14.04,9.36-30.91,14.82-49.04,14.82
			c-48.91,0-88.56-39.64-88.56-88.56c0-2.02,0.07-4.03,0.21-6.02c1.03-15.41,6.01-29.74,13.93-41.99c0.03-0.06,0.08-0.12,0.11-0.18
			c14.23-21.91,41.67-38.65,65.26-39.91c2.98-0.16,15.12-0.3,18.1,0c0,0,0,0,0,0h79.5c0,0,113.48,2.51,123.8-124.96
			c0-0.03-0.02-0.05-0.05-0.05H479.77c-82.47,0-158.33,46.88-193.52,121.47c-0.55,1.17-1.1,2.35-1.63,3.54
			c-5.7,12.7-10.7,25.94-13.39,39.91C225.27,593.74,513.69,664.14,530.05,477.38z"/>
	</g>
</g>
</svg>
